<?xml version="1.0" standalone="no"?>
<!DOCTYPE svg PUBLIC "-//W3C//DTD SVG 20010904//EN"
 "http://www.w3.org/TR/2001/REC-SVG-20010904/DTD/svg10.dtd">
<svg version="1.0" xmlns="http://www.w3.org/2000/svg"
 width="500.000000pt" height="500.000000pt" viewBox="0 0 500.000000 500.000000"
 preserveAspectRatio="xMidYMid meet">

<g transform="translate(0.000000,500.000000) scale(0.100000,-0.100000)"
fill="#000000" stroke="none">
<path d="M2355 3801 c-183 -31 -368 -151 -464 -300 -73 -114 -102 -215 -102
-361 -1 -107 17 -188 60 -276 61 -124 145 -189 266 -205 131 -18 166 -40 205
-127 30 -67 28 -183 -5 -248 -34 -66 -54 -88 -103 -113 -28 -14 -60 -21 -100
-21 -38 0 -64 -5 -71 -13 -18 -22 -3 -27 79 -27 66 0 82 4 121 28 111 71 165
206 138 344 -25 131 -100 200 -230 213 -84 9 -138 34 -192 87 -137 137 -168
422 -69 629 70 147 173 241 332 306 147 59 346 70 484 27 14 -5 16 -3 10 7 -4
8 5 4 20 -9 16 -12 34 -22 40 -22 20 0 119 -53 150 -80 16 -14 43 -38 60 -55
17 -16 35 -29 39 -27 5 1 6 -1 3 -6 -3 -5 4 -24 16 -43 38 -62 59 -141 65
-239 5 -94 6 -96 71 -217 36 -67 68 -120 71 -118 3 1 7 -12 8 -31 3 -37 -2
-39 -83 -34 -17 1 -41 -7 -55 -18 -23 -20 -24 -24 -29 -204 l-5 -183 -128 -5
c-122 -5 -129 -6 -147 -30 -11 -14 -20 -32 -20 -40 -1 -26 -59 -223 -69 -233
-5 -5 -58 -8 -119 -8 -115 1 -142 -3 -142 -24 0 -15 169 -30 229 -20 56 9 78
39 107 146 14 52 31 110 38 129 l12 35 119 5 c126 6 148 11 162 38 4 9 10 96
13 192 l5 175 50 3 c77 4 95 10 106 39 11 29 11 30 -126 278 -17 31 -23 63
-27 140 -7 115 -29 185 -87 270 -71 105 -200 190 -346 230 -69 19 -285 28
-360 16z"/>
<path d="M2457 3704 c-24 -25 7 -144 38 -144 17 0 20 21 6 36 -6 5 -11 31 -13
58 -3 46 -15 66 -31 50z"/>
<path d="M2310 3676 c0 -8 5 -18 10 -21 15 -9 12 -51 -4 -64 -26 -22 -73 -16
-107 13 -23 20 -35 24 -43 16 -8 -8 -1 -20 26 -46 40 -36 74 -43 124 -23 32
11 68 -2 80 -30 4 -9 10 -54 13 -101 4 -58 10 -85 19 -85 6 0 12 3 12 8 0 4 0
46 0 93 l0 86 -40 39 c-22 22 -37 45 -34 53 8 20 -23 76 -41 76 -8 0 -15 -6
-15 -14z"/>
<path d="M2642 3678 c-7 -7 -12 -27 -12 -46 0 -27 -10 -45 -40 -78 l-40 -44 0
-90 c0 -70 3 -90 14 -90 21 0 26 23 26 109 0 70 2 80 25 101 23 22 29 23 58
12 53 -19 83 -14 122 19 38 34 43 47 20 55 -8 4 -24 -6 -38 -22 -26 -29 -75
-36 -103 -13 -16 13 -19 55 -4 64 15 9 12 35 -3 35 -7 0 -18 -5 -25 -12z"/>
<path d="M2877 3518 c-20 -23 -37 -47 -37 -55 0 -26 28 -12 64 31 28 35 33 46
23 55 -10 8 -22 0 -50 -31z"/>
<path d="M2060 3538 c1 -15 66 -88 80 -88 23 0 19 24 -9 52 -17 17 -31 34 -31
39 0 5 -9 9 -20 9 -11 0 -20 -6 -20 -12z"/>
<path d="M2261 3464 c-33 -42 -27 -84 17 -132 35 -38 72 -55 72 -34 0 4 -18
26 -40 47 -45 44 -49 61 -20 98 11 14 20 30 20 36 0 20 -28 11 -49 -15z"/>
<path d="M2686 3481 c-3 -4 3 -16 14 -26 31 -28 25 -70 -15 -109 -40 -39 -44
-56 -15 -56 11 0 20 4 20 9 0 5 14 22 31 39 20 20 29 37 25 47 -3 9 -2 13 4
10 15 -9 12 12 -6 48 -22 43 -46 58 -58 38z"/>
<path d="M2999 3394 c-21 -22 -30 -25 -64 -19 -113 17 -121 17 -134 1 -15 -18
-13 -19 44 -21 22 -1 54 -8 71 -15 27 -12 36 -11 69 6 45 22 65 48 49 64 -7 7
-18 2 -35 -16z"/>
<path d="M1950 3400 c0 -18 53 -61 67 -55 8 2 11 0 8 -5 -9 -15 32 -12 66 5
16 9 46 14 67 13 27 -2 37 1 37 12 0 16 -58 18 -140 5 -33 -6 -44 -3 -59 14
-20 22 -46 28 -46 11z"/>
<path d="M2130 3260 c-8 -6 -32 -7 -53 -4 -34 5 -38 4 -35 -12 3 -17 14 -19
99 -19 66 0 101 -4 112 -14 19 -15 47 -8 47 11 0 13 -100 49 -135 48 -11 0
-27 -5 -35 -10z"/>
<path d="M2738 3247 c-34 -16 -45 -26 -39 -35 8 -14 57 -7 67 9 7 12 66 11 97
0 31 -12 100 5 94 22 -2 7 -24 13 -48 13 -24 1 -62 4 -84 7 -30 5 -52 1 -87
-16z"/>
<path d="M1946 3155 c-9 -24 75 -58 89 -35 3 5 19 10 35 10 22 0 33 -7 44 -28
26 -50 49 -63 115 -64 61 -1 89 10 77 30 -3 6 -33 8 -69 5 l-64 -5 -16 34 c-9
19 -25 42 -37 53 -18 17 -25 17 -75 5 -43 -10 -58 -11 -67 -2 -16 16 -25 15
-32 -3z"/>
<path d="M2890 3163 c-16 -6 -37 -33 -55 -68 -9 -17 -21 -20 -75 -20 -50 -1
-65 -4 -65 -15 0 -17 50 -27 109 -21 33 3 42 9 65 47 27 46 52 55 92 33 28
-15 91 7 86 29 -2 10 -10 15 -18 13 -19 -6 -58 -5 -94 2 -16 3 -37 3 -45 0z"/>
<path d="M2959 3070 c-11 -7 -6 -18 26 -50 40 -41 59 -49 68 -27 7 19 -76 87
-94 77z"/>
<path d="M1977 3035 c-36 -32 -42 -55 -13 -55 15 0 76 62 76 78 0 21 -24 12
-63 -23z"/>
<path d="M2090 2993 c-34 -13 -50 -47 -50 -110 0 -51 3 -64 19 -73 25 -13 121
-13 141 0 25 17 -7 30 -72 30 l-58 0 0 48 c0 84 49 98 110 32 32 -34 43 -40
78 -40 32 0 49 7 77 31 34 30 46 59 24 59 -6 0 -24 -13 -39 -30 -41 -44 -79
-41 -122 10 -33 39 -75 56 -108 43z"/>
<path d="M2850 2990 c0 -5 -5 -10 -12 -10 -6 0 -26 -16 -44 -35 -17 -19 -27
-35 -21 -35 6 0 8 -2 6 -5 -11 -10 -86 18 -108 42 -14 15 -27 21 -33 15 -25
-25 48 -82 107 -82 32 0 44 7 75 40 62 67 117 45 108 -44 -3 -30 -4 -31 -68
-36 -49 -4 -65 -9 -65 -20 0 -20 109 -27 142 -9 20 11 23 20 23 70 0 31 -3 65
-6 74 -12 31 -104 62 -104 35z"/>
<path d="M2423 2903 c-8 -3 -13 -25 -13 -58 0 -43 -4 -56 -19 -65 -35 -18 -68
-12 -89 18 -16 20 -24 24 -32 16 -31 -31 57 -92 105 -74 14 5 28 10 31 10 9 0
3 -57 -8 -68 -9 -9 -7 -13 6 -18 32 -12 41 13 44 123 4 104 -1 125 -25 116z"/>
<path d="M2557 2903 c-4 -3 -7 -27 -7 -53 0 -57 25 -93 75 -110 30 -10 40 -9
69 9 38 24 52 49 37 64 -7 7 -19 2 -35 -16 -49 -53 -106 -27 -106 47 0 41 -19
74 -33 59z"/>
<path d="M2280 1920 c-11 -11 -20 -33 -20 -50 0 -20 -5 -30 -15 -30 -8 0 -15
-9 -15 -20 0 -11 7 -20 15 -20 12 0 15 -18 15 -100 l0 -100 30 0 30 0 0 100 0
100 35 0 c28 0 35 4 35 20 0 16 -7 20 -36 20 -33 0 -35 2 -32 28 3 23 7 27 33
26 30 -1 45 10 45 34 0 21 -97 15 -120 -8z"/>
<path d="M3274 1926 c-11 -28 4 -48 33 -44 22 2 28 8 28 28 0 20 -6 26 -28 28
-18 2 -29 -2 -33 -12z"/>
<path d="M2098 1893 c-17 -4 -23 -16 -19 -36 1 -5 -8 -11 -19 -14 -24 -6 -27
-40 -3 -45 14 -2 17 -17 18 -82 2 -69 5 -82 25 -98 38 -30 112 -22 103 12 -3
12 -16 20 -37 22 l-31 3 -3 73 -3 72 36 0 c28 0 35 4 35 20 0 16 -7 20 -35 20
-32 0 -35 2 -35 30 0 17 -3 29 -7 29 -5 -1 -16 -3 -25 -6z"/>
<path d="M1566 1836 c-51 -19 -57 -27 -40 -50 13 -18 15 -19 33 -2 27 24 86
18 86 -8 0 -15 -13 -24 -59 -37 -33 -10 -63 -24 -67 -31 -15 -23 -10 -74 9
-91 24 -22 80 -22 104 0 17 15 19 15 36 0 29 -27 62 -22 62 8 0 16 -6 25 -15
25 -12 0 -15 16 -15 80 0 72 -2 81 -22 94 -36 23 -70 27 -112 12z m84 -137 c0
-52 -51 -79 -81 -43 -22 27 12 58 69 63 6 1 12 -8 12 -20z"/>
<path d="M1893 1843 c-12 -2 -27 -11 -33 -19 -16 -18 -30 -18 -30 1 0 9 -9 15
-25 15 l-25 0 0 -120 0 -120 30 0 30 0 0 84 c0 92 11 116 54 116 38 0 46 -19
46 -112 0 -87 0 -88 25 -88 l25 0 0 103 c0 86 -3 106 -17 119 -22 19 -51 26
-80 21z"/>
<path d="M2705 1843 c-62 -13 -95 -54 -95 -118 0 -76 47 -125 120 -125 37 0
52 5 70 25 18 19 21 28 12 37 -9 9 -17 8 -36 -1 -49 -27 -106 -10 -106 30 0
17 8 19 80 19 l80 0 0 31 c0 69 -58 116 -125 102z m63 -65 c3 -13 6 -25 6 -28
1 -2 -23 -5 -51 -6 -55 -1 -60 4 -43 37 16 29 80 27 88 -3z"/>
<path d="M2951 1837 c-50 -17 -73 -54 -73 -115 1 -28 6 -59 13 -70 33 -52 125
-69 173 -31 14 11 26 24 26 29 0 17 -37 20 -65 6 -20 -11 -34 -12 -56 -4 -16
5 -29 14 -29 18 0 5 -3 15 -6 24 -5 14 5 16 75 16 l81 0 0 36 c0 48 -15 73
-55 90 -40 16 -40 16 -84 1z m79 -52 c23 -28 5 -43 -47 -41 -49 3 -56 13 -31
43 14 18 63 16 78 -2z"/>
<path d="M3523 1843 c-12 -2 -27 -11 -33 -19 -16 -18 -30 -18 -30 1 0 9 -9 15
-25 15 l-25 0 0 -120 0 -120 30 0 30 0 0 84 c0 92 11 116 55 116 35 0 45 -28
45 -119 0 -80 0 -81 25 -81 l25 0 0 103 c0 86 -3 106 -17 119 -22 19 -51 26
-80 21z"/>
<path d="M1330 1720 l0 -120 30 0 30 0 0 83 c0 91 8 107 52 107 15 0 28 4 28
9 0 5 3 16 6 25 8 21 -48 22 -66 1 -7 -8 -16 -15 -21 -15 -5 0 -9 7 -9 15 0 9
-9 15 -25 15 l-25 0 0 -120z"/>
<path d="M2430 1719 l0 -120 28 3 c27 3 27 4 30 83 3 89 12 105 53 105 16 0
29 4 29 9 0 5 3 16 6 25 8 21 -48 22 -66 1 -7 -8 -16 -15 -21 -15 -5 0 -9 7
-9 15 0 9 -9 15 -25 15 l-25 0 0 -121z"/>
<path d="M3280 1720 l0 -120 25 0 25 0 0 120 0 120 -25 0 -25 0 0 -120z"/>
<path d="M3149 1654 c-15 -19 -2 -47 26 -52 25 -5 38 13 31 42 -7 30 -36 35
-57 10z"/>
<path d="M1681 1394 c0 -11 3 -14 6 -6 3 7 2 16 -1 19 -3 4 -6 -2 -5 -13z"/>
<path d="M2368 1398 c-2 -7 -1 -29 2 -48 l6 -35 5 38 c5 38 -4 71 -13 45z"/>
<path d="M1634 1366 c1 -26 6 -41 16 -43 10 -3 11 -2 3 4 -6 4 -13 24 -16 43
-4 34 -4 33 -3 -4z"/>
<path d="M3278 1394 c-10 -10 8 -68 22 -72 13 -3 13 -2 1 6 -8 6 -12 20 -9 36
5 25 -3 42 -14 30z"/>
<path d="M1723 1375 c-3 -9 -3 -18 -1 -21 3 -3 8 4 11 16 6 23 -1 27 -10 5z"/>
<path d="M1943 1355 c0 -22 2 -30 4 -17 2 12 2 30 0 40 -3 9 -5 -1 -4 -23z"/>
<path d="M2063 1345 c0 -27 2 -38 4 -22 2 15 2 37 0 50 -2 12 -4 0 -4 -28z"/>
<path d="M2106 1377 c3 -10 9 -15 12 -12 3 3 0 11 -7 18 -10 9 -11 8 -5 -6z"/>
<path d="M2426 1381 c-4 -5 3 -7 14 -4 23 6 26 13 6 13 -8 0 -17 -4 -20 -9z"/>
<path d="M2503 1355 c0 -22 2 -30 4 -17 2 12 2 30 0 40 -3 9 -5 -1 -4 -23z"/>
<path d="M2778 1359 c2 -16 7 -31 11 -34 4 -2 5 9 3 26 -2 16 -7 31 -11 34 -4
2 -5 -9 -3 -26z"/>
<path d="M3003 1375 c-3 -9 -3 -19 1 -22 3 -4 6 1 6 10 0 8 8 18 18 20 16 4
16 5 -1 6 -10 0 -20 -6 -24 -14z"/>
<path d="M3117 1369 c4 -13 8 -18 11 -10 2 7 -1 18 -6 23 -8 8 -9 4 -5 -13z"/>
<path d="M3159 1352 c5 -34 6 -35 9 -8 2 16 0 32 -5 37 -5 5 -7 -7 -4 -29z"/>
<path d="M3478 1383 c7 -3 16 -2 19 1 4 3 -2 6 -13 5 -11 0 -14 -3 -6 -6z"/>
<path d="M1371 1364 c0 -11 3 -14 6 -6 3 7 2 16 -1 19 -3 4 -6 -2 -5 -13z"/>
<path d="M1418 1363 c7 -3 16 -2 19 1 4 3 -2 6 -13 5 -11 0 -14 -3 -6 -6z"/>
<path d="M1843 1357 c21 -17 21 -24 2 -30 -12 -4 -11 -5 1 -3 27 2 28 23 2 36
-21 10 -21 10 -5 -3z"/>
<path d="M2031 1358 c-1 -9 -9 -22 -18 -27 -10 -6 -13 -11 -7 -11 17 0 37 27
31 42 -4 8 -6 7 -6 -4z"/>
<path d="M2141 1354 c0 -11 3 -14 6 -6 3 7 2 16 -1 19 -3 4 -6 -2 -5 -13z"/>
<path d="M2466 1344 c-4 -10 -13 -14 -26 -11 -11 3 -18 1 -14 -4 3 -5 11 -9
18 -9 15 0 41 28 34 36 -3 3 -8 -3 -12 -12z"/>
<path d="M2744 1349 c-3 -6 -2 -15 3 -20 5 -5 9 -1 9 11 0 23 -2 24 -12 9z"/>
<path d="M2110 1342 c0 -6 -8 -13 -17 -15 -16 -4 -16 -5 -1 -6 18 -1 34 16 24
26 -3 4 -6 1 -6 -5z"/>
<path d="M1387 1328 c6 -10 35 -10 51 0 8 5 -1 8 -22 8 -19 -1 -32 -4 -29 -8z"/>
<path d="M1478 1328 c5 -5 16 -8 23 -6 8 3 3 7 -10 11 -17 4 -21 3 -13 -5z"/>
<path d="M1728 1328 c5 -5 16 -8 23 -6 8 3 3 7 -10 11 -17 4 -21 3 -13 -5z"/>
<path d="M2175 1330 c-16 -7 -17 -9 -3 -9 9 -1 20 4 23 9 7 11 7 11 -20 0z"/>
<path d="M2678 1328 c5 -5 16 -8 23 -6 8 3 3 7 -10 11 -17 4 -21 3 -13 -5z"/>
<path d="M2915 1329 c-4 -6 -5 -12 -2 -15 2 -3 7 2 10 11 7 17 1 20 -8 4z"/>
<path d="M3008 1328 c5 -5 16 -8 23 -6 8 3 3 7 -10 11 -17 4 -21 3 -13 -5z"/>
<path d="M3207 1328 c2 -5 10 -8 18 -8 8 0 16 3 18 8 3 4 -5 7 -18 7 -13 0
-21 -3 -18 -7z"/>
<path d="M3378 1328 c5 -5 16 -8 23 -6 8 3 3 7 -10 11 -17 4 -21 3 -13 -5z"/>
<path d="M1908 1323 c7 -3 16 -2 19 1 4 3 -2 6 -13 5 -11 0 -14 -3 -6 -6z"/>
</g>
</svg>
